<svg viewBox="0 0 48 48" fill="#FFFFFF" xmlns="http://www.w3.org/2000/svg">
  <!-- === V10版本：基于V9优化散落谷粒视觉效果，保持核心设计不变 === -->
  
  <!-- === 左侧塔形A结构 - 完全保持V9版本设计 === -->
  <ellipse cx="19" cy="9" rx="1.8" ry="2.8" fill="#FFFFFF" opacity="1" />
  <ellipse cx="16.8" cy="12.5" rx="1.6" ry="2.5" fill="#FFFFFF" opacity="0.95" />
  <ellipse cx="21.2" cy="12.5" rx="1.6" ry="2.5" fill="#FFFFFF" opacity="0.95" />
  <ellipse cx="14.2" cy="16" rx="1.5" ry="2.3" fill="#FFFFFF" opacity="0.9" />
  <ellipse cx="19" cy="16" rx="1.4" ry="2.1" fill="#FFFFFF" opacity="0.85" />
  <ellipse cx="23.8" cy="16" rx="1.5" ry="2.3" fill="#FFFFFF" opacity="0.9" />
  <ellipse cx="12" cy="20" rx="1.4" ry="2.1" fill="#FFFFFF" opacity="0.85" />
  <ellipse cx="16.5" cy="20" rx="1.2" ry="1.8" fill="#FFFFFF" opacity="0.8" />
  <ellipse cx="19" cy="20" rx="1.1" ry="1.6" fill="#FFFFFF" opacity="0.75" />
  <ellipse cx="21.5" cy="20" rx="1.2" ry="1.8" fill="#FFFFFF" opacity="0.8" />
  <ellipse cx="26" cy="20" rx="1.4" ry="2.1" fill="#FFFFFF" opacity="0.85" />
  <ellipse cx="9.5" cy="24" rx="1.3" ry="1.9" fill="#FFFFFF" opacity="0.8" />
  <ellipse cx="14" cy="24" rx="1.1" ry="1.6" fill="#FFFFFF" opacity="0.75" />
  <ellipse cx="24" cy="24" rx="1.1" ry="1.6" fill="#FFFFFF" opacity="0.75" />
  <ellipse cx="28.5" cy="24" rx="1.3" ry="1.9" fill="#FFFFFF" opacity="0.8" />
  <ellipse cx="7.5" cy="28" rx="1.2" ry="1.7" fill="#FFFFFF" opacity="0.75" />
  <ellipse cx="11.8" cy="28" rx="1" ry="1.4" fill="#FFFFFF" opacity="0.7" />
  <ellipse cx="15.5" cy="28" rx="0.9" ry="1.2" fill="#FFFFFF" opacity="0.65" />
  <ellipse cx="22.5" cy="28" rx="0.9" ry="1.2" fill="#FFFFFF" opacity="0.65" />
  <ellipse cx="26.2" cy="28" rx="1" ry="1.4" fill="#FFFFFF" opacity="0.7" />
  <ellipse cx="30.5" cy="28" rx="1.2" ry="1.7" fill="#FFFFFF" opacity="0.75" />
  <ellipse cx="5.8" cy="32" rx="1.1" ry="1.5" fill="#FFFFFF" opacity="0.7" />
  <ellipse cx="9.5" cy="32" rx="0.9" ry="1.2" fill="#FFFFFF" opacity="0.65" />
  <ellipse cx="13" cy="32" rx="0.8" ry="1.1" fill="#FFFFFF" opacity="0.6" />
  <ellipse cx="25" cy="32" rx="0.8" ry="1.1" fill="#FFFFFF" opacity="0.6" />
  <ellipse cx="28.5" cy="32" rx="0.9" ry="1.2" fill="#FFFFFF" opacity="0.65" />
  <ellipse cx="32.2" cy="32" rx="1.1" ry="1.5" fill="#FFFFFF" opacity="0.7" />
  <ellipse cx="4.2" cy="36" rx="1" ry="1.3" fill="#FFFFFF" opacity="0.65" />
  <ellipse cx="7.5" cy="36" rx="0.8" ry="1.1" fill="#FFFFFF" opacity="0.6" />
  <ellipse cx="11" cy="36" rx="0.7" ry="0.9" fill="#FFFFFF" opacity="0.55" />
  <ellipse cx="14.5" cy="36" rx="0.6" ry="0.8" fill="#FFFFFF" opacity="0.5" />
  <ellipse cx="23.5" cy="36" rx="0.6" ry="0.8" fill="#FFFFFF" opacity="0.5" />
  <ellipse cx="27" cy="36" rx="0.7" ry="0.9" fill="#FFFFFF" opacity="0.55" />
  <ellipse cx="30.5" cy="36" rx="0.8" ry="1.1" fill="#FFFFFF" opacity="0.6" />
  <ellipse cx="33.8" cy="36" rx="1" ry="1.3" fill="#FFFFFF" opacity="0.65" />
  
  <!-- === 底部水平基线 - 保持V9版本的完美对齐 === -->
  <ellipse cx="6" cy="39" rx="0.8" ry="1.2" fill="#FFFFFF" opacity="0.45" />
  <ellipse cx="10" cy="39" rx="0.6" ry="1" fill="#FFFFFF" opacity="0.4" />
  <ellipse cx="16" cy="39" rx="0.5" ry="0.8" fill="#FFFFFF" opacity="0.35" />
  <ellipse cx="22" cy="39" rx="0.5" ry="0.8" fill="#FFFFFF" opacity="0.35" />
  <ellipse cx="28" cy="39" rx="0.6" ry="1" fill="#FFFFFF" opacity="0.4" />
  <ellipse cx="32" cy="39" rx="0.8" ry="1.2" fill="#FFFFFF" opacity="0.45" />
  
  <!-- === 关键过渡区域 - 保持V9版本设计 === -->
  <ellipse cx="28.8" cy="21.5" rx="2.0" ry="3.1" fill="#FFFFFF" opacity="0.82" />
  
  <!-- === V10优化: 散落谷粒 - 减少数量，统一透明度层次，消除涂抹感 === -->
  <!-- 主要散落谷粒 - 使用更清晰的透明度层次 0.8-0.6 -->
  <ellipse cx="32.2" cy="24" rx="2" ry="3" fill="#FFFFFF" opacity="0.8" />
  <ellipse cx="35.5" cy="27" rx="1.9" ry="2.9" fill="#FFFFFF" opacity="0.75" />
  <ellipse cx="31.8" cy="28" rx="2" ry="3.1" fill="#FFFFFF" opacity="0.7" />
  <ellipse cx="34.8" cy="31" rx="1.9" ry="2.9" fill="#FFFFFF" opacity="0.65" />
  <ellipse cx="37.5" cy="34" rx="1.8" ry="2.7" fill="#FFFFFF" opacity="0.6" />
  
  <!-- 右侧地面谷粒 - 保持与左侧同一水平线，优化透明度 -->
  <ellipse cx="34.5" cy="39" rx="1.7" ry="2.6" fill="#FFFFFF" opacity="0.7" />
  <ellipse cx="37.2" cy="39" rx="1.5" ry="2.3" fill="#FFFFFF" opacity="0.65" />
  <ellipse cx="40.2" cy="39" rx="1.3" ry="2" fill="#FFFFFF" opacity="0.6" />
  
  <!-- 精简的装饰谷粒 - 减少数量，统一透明度在0.7-0.5范围 -->
  <ellipse cx="39.2" cy="30" rx="1.6" ry="2.4" fill="#FFFFFF" opacity="0.7" />
  <ellipse cx="41.5" cy="33" rx="1.5" ry="2.2" fill="#FFFFFF" opacity="0.65" />
  <ellipse cx="38.8" cy="35" rx="1.4" ry="2.1" fill="#FFFFFF" opacity="0.6" />
  <ellipse cx="42.2" cy="36" rx="1.3" ry="2" fill="#FFFFFF" opacity="0.55" />
  <ellipse cx="43.2" cy="39" rx="1.2" ry="1.9" fill="#FFFFFF" opacity="0.5" />
</svg>