<svg viewBox="0 0 48 48" fill="#FFFFFF" xmlns="http://www.w3.org/2000/svg">
  <!-- === V11版本：移除散落谷粒，实现完全对称设计 === -->
  
  <!-- === 左侧塔形A结构 - 完全保持V9版本设计 === -->
  <ellipse cx="19" cy="9" rx="1.8" ry="2.8" fill="#FFFFFF" opacity="1" />
  <ellipse cx="16.8" cy="12.5" rx="1.6" ry="2.5" fill="#FFFFFF" opacity="0.95" />
  <ellipse cx="21.2" cy="12.5" rx="1.6" ry="2.5" fill="#FFFFFF" opacity="0.95" />
  <ellipse cx="14.2" cy="16" rx="1.5" ry="2.3" fill="#FFFFFF" opacity="0.9" />
  <ellipse cx="19" cy="16" rx="1.4" ry="2.1" fill="#FFFFFF" opacity="0.85" />
  <ellipse cx="23.8" cy="16" rx="1.5" ry="2.3" fill="#FFFFFF" opacity="0.9" />
  <ellipse cx="12" cy="20" rx="1.4" ry="2.1" fill="#FFFFFF" opacity="0.85" />
  <ellipse cx="16.5" cy="20" rx="1.2" ry="1.8" fill="#FFFFFF" opacity="0.8" />
  <ellipse cx="19" cy="20" rx="1.1" ry="1.6" fill="#FFFFFF" opacity="0.75" />
  <ellipse cx="21.5" cy="20" rx="1.2" ry="1.8" fill="#FFFFFF" opacity="0.8" />
  <ellipse cx="26" cy="20" rx="1.4" ry="2.1" fill="#FFFFFF" opacity="0.85" />
  <ellipse cx="9.5" cy="24" rx="1.3" ry="1.9" fill="#FFFFFF" opacity="0.8" />
  <ellipse cx="14" cy="24" rx="1.1" ry="1.6" fill="#FFFFFF" opacity="0.75" />
  <ellipse cx="24" cy="24" rx="1.1" ry="1.6" fill="#FFFFFF" opacity="0.75" />
  <ellipse cx="28.5" cy="24" rx="1.3" ry="1.9" fill="#FFFFFF" opacity="0.8" />
  <ellipse cx="7.5" cy="28" rx="1.2" ry="1.7" fill="#FFFFFF" opacity="0.75" />
  <ellipse cx="11.8" cy="28" rx="1" ry="1.4" fill="#FFFFFF" opacity="0.7" />
  <ellipse cx="15.5" cy="28" rx="0.9" ry="1.2" fill="#FFFFFF" opacity="0.65" />
  <ellipse cx="22.5" cy="28" rx="0.9" ry="1.2" fill="#FFFFFF" opacity="0.65" />
  <ellipse cx="26.2" cy="28" rx="1" ry="1.4" fill="#FFFFFF" opacity="0.7" />
  <ellipse cx="30.5" cy="28" rx="1.2" ry="1.7" fill="#FFFFFF" opacity="0.75" />
  <ellipse cx="5.8" cy="32" rx="1.1" ry="1.5" fill="#FFFFFF" opacity="0.7" />
  <ellipse cx="9.5" cy="32" rx="0.9" ry="1.2" fill="#FFFFFF" opacity="0.65" />
  <ellipse cx="13" cy="32" rx="0.8" ry="1.1" fill="#FFFFFF" opacity="0.6" />
  <ellipse cx="25" cy="32" rx="0.8" ry="1.1" fill="#FFFFFF" opacity="0.6" />
  <ellipse cx="28.5" cy="32" rx="0.9" ry="1.2" fill="#FFFFFF" opacity="0.65" />
  <ellipse cx="32.2" cy="32" rx="1.1" ry="1.5" fill="#FFFFFF" opacity="0.7" />
  <ellipse cx="4.2" cy="36" rx="1" ry="1.3" fill="#FFFFFF" opacity="0.65" />
  <ellipse cx="7.5" cy="36" rx="0.8" ry="1.1" fill="#FFFFFF" opacity="0.6" />
  <ellipse cx="11" cy="36" rx="0.7" ry="0.9" fill="#FFFFFF" opacity="0.55" />
  <ellipse cx="14.5" cy="36" rx="0.6" ry="0.8" fill="#FFFFFF" opacity="0.5" />
  <ellipse cx="23.5" cy="36" rx="0.6" ry="0.8" fill="#FFFFFF" opacity="0.5" />
  <ellipse cx="27" cy="36" rx="0.7" ry="0.9" fill="#FFFFFF" opacity="0.55" />
  <ellipse cx="30.5" cy="36" rx="0.8" ry="1.1" fill="#FFFFFF" opacity="0.6" />
  <ellipse cx="33.8" cy="36" rx="1" ry="1.3" fill="#FFFFFF" opacity="0.65" />
  
  <!-- === 底部水平基线 - 保持V9版本的完美对齐 === -->
  <ellipse cx="6" cy="39" rx="0.8" ry="1.2" fill="#FFFFFF" opacity="0.45" />
  <ellipse cx="10" cy="39" rx="0.6" ry="1" fill="#FFFFFF" opacity="0.4" />
  <ellipse cx="16" cy="39" rx="0.5" ry="0.8" fill="#FFFFFF" opacity="0.35" />
  <ellipse cx="22" cy="39" rx="0.5" ry="0.8" fill="#FFFFFF" opacity="0.35" />
  <ellipse cx="28" cy="39" rx="0.6" ry="1" fill="#FFFFFF" opacity="0.4" />
  <ellipse cx="32" cy="39" rx="0.8" ry="1.2" fill="#FFFFFF" opacity="0.45" />
  
</svg>